<svg xmlns="http://www.w3.org/2000/svg" viewBox="0 0 160 160"><defs><linearGradient id="gold" x1="0" y1="0" x2="1" y2="1"><stop stop-color="#f1e3b5"/><stop offset=".3" stop-color="#bfa06a"/><stop offset=".55" stop-color="#e6d29b"/><stop offset="1" stop-color="#8e7147"/></linearGradient><linearGradient id="navy" x2="1" y2="1"><stop stop-color="#244365"/><stop offset="1" stop-color="#0b1728"/></linearGradient></defs><g transform="translate(0 3)" fill="#030913" stroke="#030913" stroke-width="2" opacity=".65"><g transform="rotate(-12 80 80)"><rect x="42" y="23" width="76" height="115" rx="9"/><rect x="49" y="30" width="62" height="101" rx="5" fill="#030913"/><path d="M80 51C71 63 59 70 59 82c0 14 13 19 20 10-1 11-3 15-11 18h24c-8-3-10-7-11-18 7 9 20 4 20-10 0-12-12-19-21-31Z"/><path d="m56 40 6 14H50Z"/></g></g><g fill="url(#gold)" stroke="url(#gold)" stroke-width="1.1" stroke-linejoin="round" stroke-linecap="round"><g transform="rotate(-12 80 80)"><rect x="42" y="23" width="76" height="115" rx="9"/><rect x="49" y="30" width="62" height="101" rx="5" fill="url(#navy)"/><path d="M80 51C71 63 59 70 59 82c0 14 13 19 20 10-1 11-3 15-11 18h24c-8-3-10-7-11-18 7 9 20 4 20-10 0-12-12-19-21-31Z"/><path d="m56 40 6 14H50Z"/></g></g></svg>