<svg xmlns="http://www.w3.org/2000/svg" viewBox="0 0 160 160"><defs><linearGradient id="gold" x1="0" y1="0" x2="1" y2="1"><stop stop-color="#f1e3b5"/><stop offset=".3" stop-color="#bfa06a"/><stop offset=".55" stop-color="#e6d29b"/><stop offset="1" stop-color="#8e7147"/></linearGradient><linearGradient id="navy" x2="1" y2="1"><stop stop-color="#244365"/><stop offset="1" stop-color="#0b1728"/></linearGradient></defs><g transform="translate(0 3)" fill="#030913" stroke="#030913" stroke-width="2" opacity=".65"><path d="M80 137 30 87C-9 43 51 5 80 47c29-42 89-4 50 40Z"/><path d="M80 115 44 80C20 52 56 30 80 67c24-37 60-15 36 13Z" fill="#030913"/><path d="m80 71 5 11 12 2-9 8 2 12-10-6-10 6 2-12-9-8 12-2Z"/></g><g fill="url(#gold)" stroke="url(#gold)" stroke-width="1.1" stroke-linejoin="round" stroke-linecap="round"><path d="M80 137 30 87C-9 43 51 5 80 47c29-42 89-4 50 40Z"/><path d="M80 115 44 80C20 52 56 30 80 67c24-37 60-15 36 13Z" fill="url(#navy)"/><path d="m80 71 5 11 12 2-9 8 2 12-10-6-10 6 2-12-9-8 12-2Z"/></g></svg>