<svg xmlns="http://www.w3.org/2000/svg" viewBox="0 0 160 160"><defs><linearGradient id="gold" x1="0" y1="0" x2="1" y2="1"><stop stop-color="#f1e3b5"/><stop offset=".3" stop-color="#bfa06a"/><stop offset=".55" stop-color="#e6d29b"/><stop offset="1" stop-color="#8e7147"/></linearGradient><linearGradient id="navy" x2="1" y2="1"><stop stop-color="#244365"/><stop offset="1" stop-color="#0b1728"/></linearGradient></defs><g transform="translate(0 3)" fill="#030913" stroke="#030913" stroke-width="2" opacity=".65"><path d="m35 21 21 10 47 64-13 10-47-64Zm90 0-21 10-47 64 13 10 47-64Z"/><path d="m81 98 31-23 6 8-31 23Zm-3 4 15 19-9 7-15-19Zm1-4L48 75l-6 8 31 23Zm3 4-15 19 9 7 15-19Z"/><circle cx="93" cy="134" r="7"/><circle cx="67" cy="134" r="7"/></g><g fill="url(#gold)" stroke="url(#gold)" stroke-width="1.1" stroke-linejoin="round" stroke-linecap="round"><path d="m35 21 21 10 47 64-13 10-47-64Zm90 0-21 10-47 64 13 10 47-64Z"/><path d="m81 98 31-23 6 8-31 23Zm-3 4 15 19-9 7-15-19Zm1-4L48 75l-6 8 31 23Zm3 4-15 19 9 7 15-19Z"/><circle cx="93" cy="134" r="7"/><circle cx="67" cy="134" r="7"/></g></svg>